<svg width="1100" height="720" viewBox="0 0 1100 720" fill="none" xmlns="http://www.w3.org/2000/svg">
<defs>
  <linearGradient id="g" x1="150" y1="80" x2="900" y2="650" gradientUnits="userSpaceOnUse">
    <stop stop-color="#63E7FF"/><stop offset=".5" stop-color="#7078FF"/><stop offset="1" stop-color="#C46FFF"/>
  </linearGradient>
  <filter id="blur" x="-50%" y="-50%" width="200%" height="200%"><feGaussianBlur stdDeviation="22"/></filter>
</defs>
<circle cx="550" cy="360" r="260" fill="url(#g)" fill-opacity=".06" filter="url(#blur)"/>
<g stroke="url(#g)" stroke-opacity=".24">
  <path d="M170 560L350 430L550 520L770 370L950 500"/>
  <path d="M260 260L470 170L660 260L850 170"/>
  <path d="M350 430L470 170"/><path d="M550 520L660 260"/><path d="M770 370L850 170"/>
</g>
<g fill="#0B1321" stroke="#6FE4FF" stroke-opacity=".6" stroke-width="2">
  <rect x="120" y="235" width="235" height="140" rx="26"/>
  <rect x="430" y="150" width="240" height="145" rx="26"/>
  <rect x="745" y="235" width="235" height="140" rx="26"/>
  <rect x="430" y="470" width="240" height="145" rx="26"/>
</g>
<g fill="#7DE7FF">
  <circle cx="164" cy="280" r="5"/><circle cx="474" cy="197" r="5"/><circle cx="789" cy="280" r="5"/><circle cx="474" cy="517" r="5"/>
</g>
<g fill="#A4B5C9" font-family="Inter,Arial,sans-serif">
  <text x="160" y="323" font-size="19" font-weight="800">BUILD</text>
  <text x="160" y="349" font-size="12">source → image → cache</text>
  <text x="474" y="238" font-size="19" font-weight="800">DOCKER RUNTIME</text>
  <text x="474" y="264" font-size="12">isolated containers · networks</text>
  <text x="785" y="323" font-size="19" font-weight="800">SERVICE</text>
  <text x="785" y="349" font-size="12">health · logs · resources</text>
  <text x="474" y="558" font-size="19" font-weight="800">PERSIST</text>
  <text x="474" y="584" font-size="12">volumes · storage · data</text>
</g>
</svg>
