<svg width="96" height="96" viewBox="0 0 96 96" fill="none" xmlns="http://www.w3.org/2000/svg"><defs><linearGradient id="m" x1="16" y1="20" x2="79" y2="76" gradientUnits="userSpaceOnUse"><stop stop-color="#A5B4FC"/><stop offset=".55" stop-color="#818CF8"/><stop offset="1" stop-color="#C084FC"/></linearGradient></defs><path d="M26 68C18 59 17 45 22 35C27 24 37 18 49 19C62 20 72 29 76 41C80 55 75 67 65 74L52 61C58 57 61 51 60 45C58 37 51 32 44 33C36 34 31 41 32 49C33 55 37 59 43 61L39 78C34 76 30 72 26 68Z" fill="url(#m)" opacity=".92"/><circle cx="47" cy="48" r="9" fill="#0B1424"/></svg>