<svg version="1.1" xmlns="http://www.w3.org/2000/svg" style="display: block;" viewBox="0 0 1192 1192" width="298" height="298" preserveAspectRatio="none">
<defs>
	<linearGradient id="Gradient1" gradientUnits="userSpaceOnUse" x1="544.489" y1="928.916" x2="558.006" y2="290.492">
		<stop class="stop0" offset="0" stop-opacity="1" stop-color="rgb(7,180,216)"/>
		<stop class="stop1" offset="1" stop-opacity="1" stop-color="rgb(5,165,247)"/>
	</linearGradient>
</defs>
<path transform="translate(0,0)" fill="rgb(10,22,38)" d="M 233.317 0 L 957.807 0 C 961.496 2.12527 968.992 3.28576 973.382 4.04812 C 989.056 6.77021 1003.34 10.5003 1018.38 15.8257 C 1095.78 43.9947 1155.64 106.604 1180.31 185.187 C 1185.18 200.311 1188.03 225.476 1192 236.426 L 1192 955.367 L 1191.69 956.344 C 1187.3 970.68 1186.46 987.043 1182.05 1001.57 C 1156.38 1086.31 1091.17 1154.21 1006.3 1180.45 C 998.551 1182.84 963.878 1189.45 959.825 1192 L 233.259 1192 C 229.336 1189.65 195.066 1183.62 186.533 1180.66 C 116.843 1158.4 73.8875 1120.17 34.6943 1059.89 C 23.9694 1038.07 14.525 1018.14 8.22683 994.464 C 5.35329 983.661 3.51704 963.838 0 954.651 L 0 235.314 C 2.19595 231.268 7.21025 200.602 9.70667 192.361 C 27.4715 133.714 51.9754 100.811 95.2782 59.9497 C 128.254 35.4045 154.555 20.4972 195.058 8.83887 C 202.847 6.59709 228.064 3.01728 233.317 0 z"/>
<path transform="translate(0,0)" fill="rgb(23,195,206)" d="M 632.128 448.573 C 656.773 443.554 679.278 448.324 703.665 452.537 C 707.686 453.232 720.656 456.013 723.999 455.593 C 748.192 463.023 773.688 473.347 795.067 487.092 C 806.322 495.022 819.04 504.027 829.229 513.12 C 879.334 558.549 912.668 619.537 923.851 686.239 C 936.718 761.183 919.077 838.16 874.857 900.02 C 829.708 964.776 760.579 1008.83 682.814 1022.4 C 652.53 1027.52 624.351 1025.27 594.327 1025.99 C 547.431 1027.12 495.701 1025.02 449.169 1027.22 C 475.714 1001.25 502.22 973.489 528.938 948.013 L 602.916 947.969 C 658.128 947.992 689.373 947.939 739.605 920.258 C 836.625 866.792 877.251 743.752 830.358 643.124 C 812.199 604.156 784.107 574.29 747.274 550.562 C 735.58 560.083 725.71 569.368 713.026 577.811 C 662.596 611.381 616.947 618.89 558.112 619.308 C 549.325 618.982 538.417 619.369 529.473 619.445 C 530.092 593.682 529.12 567.565 530.087 541.829 C 529.6 533.255 530.446 525.381 530.534 516.823 C 530.639 500.031 530.629 483.238 530.504 466.445 C 569.196 466.675 598.558 469.633 632.128 448.573 z"/>
<path transform="translate(0,0)" fill="rgb(228,246,249)" d="M 650.424 525.915 C 658.672 525.16 668.437 524.936 676.657 525.828 C 693.313 527.635 735.555 539.77 747.274 550.562 C 735.58 560.083 725.71 569.368 713.026 577.811 C 662.596 611.381 616.947 618.89 558.112 619.308 C 549.325 618.982 538.417 619.369 529.473 619.445 C 530.092 593.682 529.12 567.565 530.087 541.829 C 542.235 542.335 562.616 542.161 574.507 541.248 C 609.827 540.867 617.31 537.445 650.424 525.915 z"/>
<path transform="translate(0,0)" fill="rgb(10,22,38)" d="M 551.111 541.557 C 573.917 536.727 630.566 521.03 650.424 525.915 C 617.31 537.445 609.827 540.867 574.507 541.248 C 567.568 540.828 558.255 541.338 551.111 541.557 z"/>
<path transform="translate(0,0)" fill="rgb(228,246,249)" d="M 295.899 134.022 L 476.382 133.945 C 526.046 133.951 589.732 130.154 636.24 141.715 C 678.381 151.824 716.928 173.333 747.662 203.887 C 793.933 249.291 820.22 311.253 820.711 376.079 C 820.904 417.062 810.412 449.948 795.067 487.092 C 773.688 473.347 748.192 463.023 723.999 455.593 C 742.895 403.293 753.573 361.703 728.202 307.778 C 709.382 267.778 677.487 236.682 635.422 222.182 C 594.527 207.81 552.874 212.743 510.052 212.004 C 465.288 211.231 418.701 213.53 374.108 210.903 L 374.084 465.156 L 295.952 464.087 L 295.899 134.022 z"/>
<path transform="translate(0,0)" fill="url(#Gradient1)" d="M 450.681 288.902 L 532.177 288.847 C 552.208 288.847 583.291 287.837 601.969 292.368 C 613.737 295.186 624.656 300.79 633.808 308.707 C 650.854 323.309 663.413 347.053 664.594 369.437 C 666.443 404.499 653.932 423.586 632.128 448.573 C 598.558 469.633 569.196 466.675 530.504 466.445 C 530.629 483.238 530.639 500.031 530.534 516.823 C 530.446 525.381 529.6 533.255 530.087 541.829 C 529.12 567.565 530.092 593.682 529.473 619.445 C 538.417 619.369 549.325 618.982 558.112 619.308 C 550.371 619.978 537.338 619.773 529.193 619.905 C 528.911 630.577 528.833 641.341 528.873 652.019 C 529.129 719.701 528.264 787.524 529.115 855.192 C 506.617 882.39 475.912 910.086 450.71 935.726 C 451.659 896.765 450.893 854.746 450.899 815.595 C 451.408 750.069 451.074 684.54 449.898 619.023 C 449.662 615.597 449.667 612.175 449.762 608.745 C 450.39 586.131 449.522 563.503 449.845 540.893 C 450.95 456.901 451.228 372.9 450.681 288.902 z"/>
<path transform="translate(0,0)" fill="rgb(228,246,249)" d="M 295.888 542.034 L 449.845 540.893 C 449.522 563.503 450.39 586.131 449.762 608.745 C 449.667 612.175 449.662 615.597 449.898 619.023 C 424.569 619.157 399.239 618.816 373.923 618.001 C 374.878 654.736 374.145 685.504 374.068 721.657 L 374.027 897.052 C 374.037 941.14 373.67 984.603 375.066 1028.69 C 354.891 1045.82 341.817 1060.27 323.929 1079.57 C 314.863 1089.36 303.981 1098.38 294.692 1108.49 C 296.514 1085.53 295.932 1054.75 295.936 1031.59 L 295.907 913.306 L 295.888 542.034 z"/>
</svg>